<svg xmlns="http://www.w3.org/2000/svg" xmlns:xlink="http://www.w3.org/1999/xlink" preserveAspectRatio="xMidYMid" width="19" height="36" viewBox="0 0 19 36">
  <defs>
    <style>

      .cls-2 {
        fill: #116fb6;
      }
    </style>
  </defs>
  <g transform="translate(19), scale(-1, 1)">
  <path d="M18.697,17.990 C18.697,17.990 17.990,18.697 17.990,18.697 C17.990,18.697 17.844,18.550 17.844,18.550 C17.844,18.550 0.697,35.697 0.697,35.697 C0.697,35.697 -0.010,34.990 -0.010,34.990 C-0.010,34.990 17.137,17.843 17.137,17.843 C17.137,17.843 -0.010,0.697 -0.010,0.697 C-0.010,0.697 0.697,-0.010 0.697,-0.010 C0.697,-0.010 17.844,17.136 17.844,17.136 C17.844,17.136 17.990,16.990 17.990,16.990 C17.990,16.990 18.697,17.697 18.697,17.697 C18.697,17.697 18.551,17.843 18.551,17.843 C18.551,17.843 18.697,17.990 18.697,17.990 Z" id="path-1" class="cls-2" fill-rule="evenodd"/></g>
</svg>
