<?xml version="1.0" encoding="UTF-8"?>
<!DOCTYPE svg PUBLIC "-//W3C//DTD SVG 1.1//EN" "http://www.w3.org/Graphics/SVG/1.1/DTD/svg11.dtd">
<!-- Creator: CorelDRAW X6 -->
<svg xmlns="http://www.w3.org/2000/svg" xml:space="preserve" version="1.1" style="shape-rendering:geometricPrecision; text-rendering:geometricPrecision; image-rendering:optimizeQuality; fill-rule:evenodd; clip-rule:evenodd"
viewBox="0 0 1101 1761"
 xmlns:xlink="http://www.w3.org/1999/xlink">
 <g id="Слой_x0020_1">
  <metadata id="CorelCorpID_0Corel-Layer"/>
  <path d="M495 -1l0 139c-197,12 -325,88 -386,186 -66,107 -55,227 -55,236 0,146 84,262 185,321 81,47 170,73 256,93l0 428c-99,-7 -165,-35 -205,-68 -47,-40 -70,-92 -70,-178l-221 0c0,134 49,262 148,346 88,75 207,113 348,121l0 139 110 0 0 -139c199,-12 333,-84 407,-176 81,-100 90,-206 90,-253 0,-146 -85,-260 -185,-319 -99,-58 -209,-82 -312,-105l0 -411c95,6 144,31 171,60 32,33 50,90 50,186l220 0c0,-125 -25,-247 -112,-338 -76,-80 -189,-121 -329,-129l0 -139 -110 0 0 0zm-7 360c2,-1 5,0 7,0l0 385c-59,-15 -111,-32 -146,-53 -55,-32 -74,-53 -74,-131 0,-46 -2,-82 20,-119 20,-32 61,-73 193,-82l0 0zm117 639c83,19 156,40 202,67 55,32 74,51 74,129 0,14 -5,69 -41,114 -33,40 -92,85 -235,95l0 -405 0 0z"/>
 </g>
</svg>
