<?xml version="1.0" encoding="UTF-8"?>
<!DOCTYPE svg PUBLIC "-//W3C//DTD SVG 1.1//EN" "http://www.w3.org/Graphics/SVG/1.1/DTD/svg11.dtd">
<!-- Creator: CorelDRAW X6 -->
<svg xmlns="http://www.w3.org/2000/svg" xml:space="preserve" version="1.1" style="shape-rendering:geometricPrecision; text-rendering:geometricPrecision; image-rendering:optimizeQuality; fill-rule:evenodd; clip-rule:evenodd"
viewBox="0 0 1600 1702"
 xmlns:xlink="http://www.w3.org/1999/xlink">
 <g id="Слой_x0020_1">
  <metadata id="CorelCorpID_0Corel-Layer"/>
  <path d="M1118 -1c-415,0 -762,299 -837,692l-242 0 -39 160 266 0c0,36 4,71 8,106l-235 0 -39 160 309 0c112,340 433,586 809,586 155,0 301,-42 426,-115l0 -259c-113,100 -262,161 -426,161 -259,0 -480,-153 -581,-373l742 0 52 -158 0 -2 -842 0c-6,-34 -10,-70 -10,-106l889 0 51 -160 -920 0c71,-276 320,-479 619,-479 157,0 302,55 413,148l70 -210c-138,-95 -304,-151 -483,-151l0 0z"/>
 </g>
</svg>
