<?xml version="1.0" encoding="UTF-8"?>
<!DOCTYPE svg PUBLIC "-//W3C//DTD SVG 1.1//EN" "http://www.w3.org/Graphics/SVG/1.1/DTD/svg11.dtd">
<!-- Creator: CorelDRAW X6 -->
<svg xmlns="http://www.w3.org/2000/svg" xml:space="preserve" width="10.414mm" height="14.732mm" version="1.1" style="shape-rendering:geometricPrecision; text-rendering:geometricPrecision; image-rendering:optimizeQuality; fill-rule:evenodd; clip-rule:evenodd"
viewBox="0 0 1041 1473"
 xmlns:xlink="http://www.w3.org/1999/xlink">
 <defs>
  <style type="text/css">
   <![CDATA[
    .fil0 {fill:#116FB6}
    .fil1 {fill:white}
   ]]>
  </style>
 </defs>
 <g id="Слой_x0020_1">
  <metadata id="CorelCorpID_0Corel-Layer"/>
  <g id="_633575472">
   <path class="fil0" d="M521 0c-288,0 -521,235 -521,524 0,274 236,627 393,799 59,64 128,150 128,150 0,0 73,-87 136,-153 158,-164 384,-495 384,-796 0,-289 -233,-524 -520,-524z"/>
   <path class="fil1" d="M549 238c-8,-5 -20,-5 -28,0l-252 163c-8,5 -11,15 -6,23l2 1c5,8 10,22 10,31l0 314c0,9 4,19 13,19l149 0c9,0 17,-10 17,-19l0 -182c0,-9 7,-21 16,-21l108 0c9,0 14,12 14,21l0 182c0,9 10,19 19,19l157 0c9,0 13,-10 13,-19l0 -309c0,-9 5,-23 9,-31l3 -5c4,-8 2,-19 -6,-24l-238 -163z"/>
  </g>
 </g>
</svg>
