<svg xmlns="http://www.w3.org/2000/svg" xmlns:xlink="http://www.w3.org/1999/xlink" preserveAspectRatio="xMidYMid" width="29" height="19" viewBox="0 0 29 19">
  <defs>
    <style>

      .cls-2 {
        fill: #3a3a3a;
      }
    </style>
  </defs>
  <path d="M-0.000,19.000 C-0.000,19.000 -0.000,16.000 -0.000,16.000 C-0.000,16.000 29.000,16.000 29.000,16.000 C29.000,16.000 29.000,19.000 29.000,19.000 C29.000,19.000 -0.000,19.000 -0.000,19.000 ZM-0.000,8.000 C-0.000,8.000 29.000,8.000 29.000,8.000 C29.000,8.000 29.000,11.000 29.000,11.000 C29.000,11.000 -0.000,11.000 -0.000,11.000 C-0.000,11.000 -0.000,8.000 -0.000,8.000 ZM-0.000,-0.000 C-0.000,-0.000 29.000,-0.000 29.000,-0.000 C29.000,-0.000 29.000,3.000 29.000,3.000 C29.000,3.000 -0.000,3.000 -0.000,3.000 C-0.000,3.000 -0.000,-0.000 -0.000,-0.000 Z" id="path-1" class="cls-2" fill-rule="evenodd"/>
</svg>
