<?xml version="1.0" encoding="UTF-8"?>
<!DOCTYPE svg PUBLIC "-//W3C//DTD SVG 1.1//EN" "http://www.w3.org/Graphics/SVG/1.1/DTD/svg11.dtd">
<!-- Creator: CorelDRAW X6 -->
<svg xmlns="http://www.w3.org/2000/svg" xml:space="preserve" width="17.6106mm" height="17.6106mm" version="1.1" style="shape-rendering:geometricPrecision; text-rendering:geometricPrecision; image-rendering:optimizeQuality; fill-rule:evenodd; clip-rule:evenodd"
viewBox="0 0 1761 1761"
 xmlns:xlink="http://www.w3.org/1999/xlink">
 <defs>
  <style type="text/css">
   <![CDATA[
    .fil0 {fill:#2F2C2C}
   ]]>
  </style>
 </defs>
 <g id="Слой_x0020_1">
  <metadata id="CorelCorpID_0Corel-Layer"/>
  <path class="fil0" d="M1744 1481c-100,239 -334,281 -410,281 -23,0 -373,19 -876,-459 -405,-384 -455,-797 -459,-875 -4,-77 18,-269 282,-411 32,-18 97,-26 114,-9 7,8 229,372 235,384 5,12 8,24 8,36 0,16 -12,37 -35,62 -24,25 -50,48 -78,69 -28,20 -53,42 -77,66 -24,23 -36,42 -36,57 2,39 34,178 276,391 243,214 360,274 371,278 11,4 21,6 28,6 15,0 34,-12 58,-35 23,-24 101,-132 126,-155 25,-24 46,-36 63,-36 11,0 23,3 35,9 12,6 377,219 384,226 19,20 6,80 -9,115z"/>
 </g>
</svg>
