<?xml version="1.0" encoding="UTF-8"?>
<!DOCTYPE svg PUBLIC "-//W3C//DTD SVG 1.1//EN" "http://www.w3.org/Graphics/SVG/1.1/DTD/svg11.dtd">
<!-- Creator: CorelDRAW X6 -->
<svg xmlns="http://www.w3.org/2000/svg" xml:space="preserve" width="17.6106mm" height="15.8326mm" version="1.1" style="shape-rendering:geometricPrecision; text-rendering:geometricPrecision; image-rendering:optimizeQuality; fill-rule:evenodd; clip-rule:evenodd"
viewBox="0 0 1761 1583"
 xmlns:xlink="http://www.w3.org/1999/xlink">
 <defs>
  <style type="text/css">
   <![CDATA[
    .fil0 {fill:#838383}
   ]]>
  </style>
 </defs>
 <g id="Слой_x0020_1">
  <metadata id="CorelCorpID_0Corel-Layer"/>
  <path id="Shape" class="fil0" d="M1497 439l-1233 0c-150,0 -264,115 -264,265l0 528 352 0 0 352 1057 0 0 -352 352 0 0 -528c0,-150 -114,-265 -264,-265l0 0zm-264 969l-705 0 0 -440 705 0 0 440 0 0zm264 -616c-53,0 -88,-36 -88,-88 0,-53 35,-88 88,-88 53,0 88,35 88,88 0,52 -35,88 -88,88l0 0zm-88 -793l-1057 0 0 352 1057 0 0 -352 0 0z"/>
 </g>
</svg>
