<?xml version="1.0" encoding="UTF-8"?>
<!DOCTYPE svg PUBLIC "-//W3C//DTD SVG 1.1//EN" "http://www.w3.org/Graphics/SVG/1.1/DTD/svg11.dtd">
<!-- Creator: CorelDRAW X6 -->
<svg xmlns="http://www.w3.org/2000/svg" xml:space="preserve" version="1.1" style="shape-rendering:geometricPrecision; text-rendering:geometricPrecision; image-rendering:optimizeQuality; fill-rule:evenodd; clip-rule:evenodd"
viewBox="0 0 1287 1566"
 xmlns:xlink="http://www.w3.org/1999/xlink">
 <g id="Слой_x0020_1">
  <metadata id="CorelCorpID_0Corel-Layer"/>
  <path d="M807 926c159,0 279,-41 360,-122 80,-81 121,-195 121,-341 0,-147 -41,-261 -121,-342 -81,-81 -201,-122 -360,-122l-602 0 0 751 -206 0 0 176 206 0 0 167 -206 0 0 176 206 0 0 298 209 0 0 -298 563 0 0 -176 -563 0 0 -167 393 0zm-393 -751l322 0c119,0 206,24 261,73 55,50 82,121 82,215 0,93 -27,165 -82,214 -55,49 -142,73 -261,73l-322 0 0 -575z"/>
 </g>
</svg>
