<?xml version="1.0" encoding="UTF-8"?>
<!DOCTYPE svg PUBLIC "-//W3C//DTD SVG 1.1//EN" "http://www.w3.org/Graphics/SVG/1.1/DTD/svg11.dtd">
<!-- Creator: CorelDRAW X6 -->
<svg xmlns="http://www.w3.org/2000/svg" xml:space="preserve" width="25.908mm" height="32.512mm" version="1.1" style="shape-rendering:geometricPrecision; text-rendering:geometricPrecision; image-rendering:optimizeQuality; fill-rule:evenodd; clip-rule:evenodd"
viewBox="0 0 2591 3251"
 xmlns:xlink="http://www.w3.org/1999/xlink">
 <defs>
  <style type="text/css">
   <![CDATA[
    .fil0 {fill:#2F2C2C}
   ]]>
  </style>
 </defs>
 <g id="Слой_x0020_1">
  <metadata id="CorelCorpID_0Corel-Layer"/>
  <path class="fil0" d="M0 1448l0 1803 2591 0 0 -1803 -2591 0zm1446 976l0 473 -281 0 0 -473c-121,-54 -205,-175 -205,-316 0,-191 154,-346 346,-346 190,0 345,155 345,346 1,141 -84,262 -205,316zm-640 -1187c-12,0 -53,-112 -53,-112 -18,-57 -27,-116 -27,-175 0,-320 260,-580 580,-580 319,0 579,260 579,580 0,60 -9,119 -27,175l1 0 -2 0c0,0 -41,112 -53,112 -12,0 398,0 405,0l2 0c29,-92 44,-189 44,-287 0,-524 -426,-950 -949,-950 -524,0 -950,426 -950,950 0,97 15,194 44,287 0,0 419,0 406,0z"/>
 </g>
</svg>
